<svg xmlns="http://www.w3.org/2000/svg" width="1200" height="520" viewBox="0 0 1200 520" role="img" aria-label="TypeGrid interface illustration with example data"><rect width="1200" height="520" rx="12" fill="#0b0d0c"/><g font-family="Helvetica,Arial,sans-serif"><text x="48" y="65" font-size="30" fill="#eef0ec" font-weight="600">typegrid</text><text x="48" y="145" font-size="17" fill="#b5f572" letter-spacing="2">YOUR MACHINE. YOUR SIGNAL.</text><text x="48" y="216" font-size="52" fill="#eef0ec">Every keystroke counts.</text><text x="48" y="268" font-size="34" fill="#a9b99b">Make yours count.</text><text x="48" y="333" font-size="18" fill="#929a93">A tiny native agent. A live picture of your digital life.</text><text x="48" y="455" font-size="15" fill="#b5f572">WE COUNT. WE DON’T READ.</text><rect x="720" y="72" width="430" height="375" rx="8" fill="#121710" stroke="#35432c"/><text x="750" y="111" font-size="11" fill="#a7b69b">INTERFACE ILLUSTRATION · EXAMPLE DATA</text><text x="750" y="166" font-size="16" fill="#929a93">Keystrokes today</text><text x="750" y="218" font-size="47" fill="#eef0ec" font-family="monospace">24,891</text><g fill="#9ac875"><rect x="752" y="328" width="17" height="45"/><rect x="778" y="304" width="17" height="69"/><rect x="804" y="314" width="17" height="59"/><rect x="830" y="287" width="17" height="86"/><rect x="856" y="279" width="17" height="94"/><rect x="882" y="294" width="17" height="79"/><rect x="908" y="269" width="17" height="104"/><rect x="934" y="300" width="17" height="73"/><rect x="960" y="327" width="17" height="46"/><rect x="986" y="313" width="17" height="60"/><rect x="1012" y="341" width="17" height="32"/><rect x="1038" y="319" width="17" height="54"/><rect x="1064" y="343" width="17" height="30"/><rect x="1090" y="330" width="17" height="43"/></g><text x="750" y="413" font-size="13" fill="#929a93">7-day streak</text><text x="959" y="413" font-size="13" fill="#929a93">Level 12</text><text x="48" y="492" font-size="11" fill="#66715f">Free &amp; open source · macOS · Native Swift + Next.js</text></g></svg>
